# xmcd
#
# Track frame offsets:
#	150
#	15435
#	33387
#	54185
#	74880
#	97447
#	118077
#	142597
#	176932
#	196975
#	225605
#	246905
#
# Disc length: 3481 seconds
#
# Revision: 1
# Processed by: cddbd v1.5PL3 Copyright (c) Steve Scherf et al.
# Submitted via: audiograbber 1.83.01
#
DISCID=aa0d970c
DTITLE=S.O.U.L. 50 Voices Groove - 50 Voices Groove
DYEAR=2000
DGENRE=Jazz
TTITLE0=S.O.U.L. 50 Voices Groove - Let's Feel Alright
TTITLE1=S.O.U.L. 50 Voices Groove - I Heard It Through The Grapevine
TTITLE2=S.O.U.L. 50 Voices Groove - Sign Me Up
TTITLE3=S.O.U.L. 50 Voices Groove - His Eye Is On The Sparrow
TTITLE4=S.O.U.L. 50 Voices Groove - Since You've Been Gone
TTITLE5=S.O.U.L. 50 Voices Groove - You've gotta Love Someone
TTITLE6=S.O.U.L. 50 Voices Groove - Love The One You're With
TTITLE7=S.O.U.L. 50 Voices Groove - Precious Mem'ries
TTITLE8=S.O.U.L. 50 Voices Groove - Love In Vain
TTITLE9=S.O.U.L. 50 Voices Groove - Don't Let The Sun Go Down On Me
TTITLE10=S.O.U.L. 50 Voices Groove - Mercy
TTITLE11=S.O.U.L. 50 Voices Groove - Go, Tell It On The Mountain
EXTD=
EXTT0=
EXTT1=
EXTT2=
EXTT3=
EXTT4=
EXTT5=
EXTT6=
EXTT7=
EXTT8=
EXTT9=
EXTT10=
EXTT11=
PLAYORDER=
